<svg width="32" height="39" viewBox="0 0 32 39" fill="none" xmlns="http://www.w3.org/2000/svg">
<path d="M15.9697 10.2243C18.9666 10.2243 21.3902 12.6479 21.3902 15.634C21.3902 18.6202 18.9666 21.0329 15.9697 21.0329C12.9727 21.0329 10.5491 18.6094 10.5491 15.634C10.5491 12.6587 12.9727 10.2243 15.9697 10.2243Z" fill="white"/>
<path d="M15.9696 0C24.5711 0 31.5496 6.9569 31.5496 15.5367C31.5496 26.8322 15.9696 38.95 15.9696 38.95C15.9696 38.95 0.389648 26.8322 0.389648 15.5367C0.389648 6.9569 7.36819 0 15.9696 0ZM21.3902 15.634C21.3902 12.6479 18.9666 10.2243 15.9697 10.2243C12.9727 10.2243 10.5491 12.6479 10.5491 15.634C10.5491 18.6202 12.9727 21.0329 15.9697 21.0329C18.9666 21.0329 21.3902 18.6094 21.3902 15.634Z" fill="#005BA9"/>
</svg>
