<svg width="32" height="41" viewBox="0 0 32 41" fill="none" xmlns="http://www.w3.org/2000/svg">
<path fill-rule="evenodd" clip-rule="evenodd" d="M15.9306 0C7.13273 0 0 7.14976 0 15.9686C0 27.5812 15.9306 40.0306 15.9306 40.0306C15.9306 40.0306 31.8611 27.5812 31.8611 15.9686C31.8611 7.14976 24.7284 0 15.9306 0Z" fill="#005BA9"/>
<path d="M13.9954 17.6834C13.9003 18.0042 14.2729 18.258 14.5366 18.052L16 16.9087L17.4152 18.0344C17.6782 18.2436 18.0543 17.9899 17.9587 17.6677L17.4025 15.7915L18.9675 14.5106C19.2175 14.3061 19.0728 13.9009 18.7498 13.9009H16.9075L16.3283 12.036C16.2282 11.7136 15.7718 11.7136 15.6717 12.036L15.0925 13.9009H13.237C12.9154 13.9009 12.7699 14.3029 13.0169 14.5087L14.5562 15.7915L13.9954 17.6834ZM9.4 22.1509C8.94625 22.1509 8.55781 21.9826 8.23469 21.646C7.91156 21.3094 7.75 20.9048 7.75 20.4321V17.5317C7.75 17.3742 7.79813 17.2381 7.89437 17.1235C7.99062 17.009 8.11438 16.9373 8.26562 16.9087C8.59562 16.7941 8.86719 16.5864 9.08031 16.2856C9.29344 15.9849 9.4 15.6483 9.4 15.2759C9.4 14.9035 9.29344 14.5669 9.08031 14.2661C8.86719 13.9653 8.59562 13.7576 8.26562 13.6431C8.11438 13.6144 7.99062 13.5428 7.89437 13.4282C7.79813 13.3136 7.75 13.1776 7.75 13.02V10.1196C7.75 9.64697 7.91156 9.24235 8.23469 8.90576C8.55781 8.56917 8.94625 8.40088 9.4 8.40088H22.6C23.0538 8.40088 23.4422 8.56917 23.7653 8.90576C24.0884 9.24235 24.25 9.64697 24.25 10.1196V13.02C24.25 13.1776 24.2019 13.3136 24.1056 13.4282C24.0094 13.5428 23.8856 13.6144 23.7344 13.6431C23.4044 13.7576 23.1328 13.9653 22.9197 14.2661C22.7066 14.5669 22.6 14.9035 22.6 15.2759C22.6 15.6483 22.7066 15.9849 22.9197 16.2856C23.1328 16.5864 23.4044 16.7941 23.7344 16.9087C23.8856 16.9373 24.0094 17.009 24.1056 17.1235C24.2019 17.2381 24.25 17.3742 24.25 17.5317V20.4321C24.25 20.9048 24.0884 21.3094 23.7653 21.646C23.4422 21.9826 23.0538 22.1509 22.6 22.1509H9.4ZM9.4 20.4321H22.6V18.2407C22.0913 17.9256 21.6891 17.5067 21.3934 16.9839C21.0978 16.4611 20.95 15.8918 20.95 15.2759C20.95 14.66 21.0978 14.0907 21.3934 13.5679C21.6891 13.0451 22.0913 12.6261 22.6 12.311V10.1196H9.4V12.311C9.90875 12.6261 10.3109 13.0451 10.6066 13.5679C10.9022 14.0907 11.05 14.66 11.05 15.2759C11.05 15.8918 10.9022 16.4611 10.6066 16.9839C10.3109 17.5067 9.90875 17.9256 9.4 18.2407V20.4321Z" fill="white"/>
</svg>
