<svg width="32" height="41" viewBox="0 0 32 41" fill="none" xmlns="http://www.w3.org/2000/svg">
<path fill-rule="evenodd" clip-rule="evenodd" d="M15.9306 0C7.13273 0 0 7.14976 0 15.9686C0 27.5812 15.9306 40.0306 15.9306 40.0306C15.9306 40.0306 31.8611 27.5812 31.8611 15.9686C31.8611 7.14976 24.7284 0 15.9306 0Z" fill="#005BA9"/>
<path d="M7.75 24.2134V11.8384L16 5.65088L24.25 11.8384V24.2134H7.75ZM9.8125 22.1509H22.1875V12.8696L16 8.229L9.8125 12.8696V22.1509Z" fill="white"/>
<path fill-rule="evenodd" clip-rule="evenodd" d="M20.0826 14.9857C19.9732 14.6389 19.674 14.4027 19.3204 14.3831L17.4625 14.28L16.7931 12.4955C16.6703 12.168 16.3763 11.9544 16.038 11.9394L15.9999 11.8384V11.9363C15.6457 11.9363 15.3342 12.1558 15.2071 12.4955L14.5377 14.28L12.6801 14.3831C12.3262 14.4027 12.027 14.6389 11.9175 14.9857C11.8077 15.3324 11.9148 15.7044 12.1898 15.934L13.6337 17.14L13.1554 18.9884C13.0639 19.3403 13.19 19.7063 13.4766 19.9202C13.7632 20.1342 14.1409 20.1447 14.4381 19.9468L15.9999 18.9073L17.5621 19.9472C17.7042 20.0412 17.8643 20.0884 18.0241 20.0884C18.1992 20.0884 18.3736 20.0321 18.5235 19.9202C18.8101 19.7063 18.9362 19.3403 18.8451 18.9887L18.3661 17.14L19.81 15.9344C20.0853 15.7044 20.1921 15.3324 20.0826 14.9857Z" fill="white"/>
</svg>
