<svg width="32" height="41" viewBox="0 0 32 41" fill="none" xmlns="http://www.w3.org/2000/svg">
<path fill-rule="evenodd" clip-rule="evenodd" d="M15.9306 0C7.13273 0 0 7.14976 0 15.9686C0 27.5812 15.9306 40.0306 15.9306 40.0306C15.9306 40.0306 31.8611 27.5812 31.8611 15.9686C31.8611 7.14976 24.7284 0 15.9306 0Z" fill="#005BA9"/>
<path d="M12.15 23.5259V15.9771C11.4877 15.7846 10.9326 15.3996 10.4845 14.8221C10.0365 14.2446 9.8125 13.5709 9.8125 12.8009V7.02588H11.3708V12.8009H12.15V7.02588H13.7083V12.8009H14.4875V7.02588H16.0458V12.8009C16.0458 13.5709 15.8218 14.2446 15.3738 14.8221C14.9258 15.3996 14.3706 15.7846 13.7083 15.9771V23.5259H12.15ZM19.9417 23.5259V16.9259H17.6042V11.1509C17.6042 10.0096 17.984 9.03682 18.7437 8.23244C19.5034 7.42807 20.4222 7.02588 21.5 7.02588V23.5259H19.9417Z" fill="white"/>
</svg>
