<svg width="32" height="41" viewBox="0 0 32 41" fill="none" xmlns="http://www.w3.org/2000/svg">
<path fill-rule="evenodd" clip-rule="evenodd" d="M15.9306 0C7.13273 0 0 7.14976 0 15.9686C0 27.5812 15.9306 40.0306 15.9306 40.0306C15.9306 40.0306 31.8611 27.5812 31.8611 15.9686C31.8611 7.14976 24.7284 0 15.9306 0Z" fill="#005BA9"/>
<path d="M24.0197 13.7634C23.7914 13.4315 23.3961 13.1061 23.0551 12.861C23.1771 12.4389 23.2071 12.0072 23.1437 11.5709C23.0444 10.8865 22.756 10.2894 22.2861 9.79616C21.821 9.30838 21.249 8.98182 20.5856 8.8261C20.2095 8.73586 19.8331 8.71438 19.455 8.76488C19.2439 8.20628 18.8964 7.71334 18.4158 7.29328C17.6878 6.65958 16.8319 6.33838 15.8625 6.33838C14.8931 6.33838 14.0372 6.65958 13.3119 7.29435C12.8306 7.71441 12.4834 8.20769 12.2703 8.76629C11.8922 8.71679 11.5175 8.73707 11.1394 8.82747C10.477 8.98319 9.90497 9.30975 9.43988 9.7965C8.96963 10.2606 8.68122 10.8862 8.58188 11.5737C8.52065 11.9938 8.54911 12.4073 8.66513 12.8112C8.28866 13.0656 7.96794 13.3818 7.706 13.7634C7.27896 14.3856 7.0625 15.0799 7.0625 15.8259C7.0625 16.8561 7.44062 17.7433 8.18622 18.4642C8.92356 19.1774 9.829 19.5384 10.8781 19.5384H15.0444L15.0475 23.1134C15.0478 23.5706 15.4122 23.9384 15.8659 23.9384C15.8659 23.9384 15.8654 23.9384 15.8659 23.9384C16.3214 23.9384 16.6982 23.5678 16.6975 23.1123L16.6944 19.5384H20.8469C21.896 19.5384 22.8014 19.1774 23.5388 18.4642C24.2844 17.744 24.6625 16.8262 24.6625 15.8259C24.6625 15.0799 24.4459 14.3856 24.0197 13.7634ZM22.3903 17.2799C21.9675 17.689 21.4622 17.8884 20.8469 17.8884H16.6944L16.6942 17.6746L18.647 15.7218C18.9693 15.3995 18.9693 14.8775 18.647 14.5551C18.3248 14.2326 17.8028 14.2328 17.4803 14.5551L16.6921 15.3433L16.6875 11.5324C16.687 11.077 16.3176 10.7085 15.8622 10.7085C15.8622 10.7085 15.8627 10.7085 15.8622 10.7085C15.4067 10.7085 15.0368 11.0794 15.0375 11.5348L15.0394 13.6692L14.2159 12.904C13.8937 12.5817 13.3717 12.5817 13.0493 12.904C12.7268 13.2263 12.727 13.7483 13.0493 14.0707L15.0114 16.0328L15.0444 17.8884H10.8781C10.2632 17.8884 9.75819 17.6886 9.33331 17.2782C8.91566 16.8743 8.7125 16.3999 8.7125 15.8259C8.7125 15.4134 8.82797 15.0449 9.06588 14.6991C9.3022 14.3553 9.61759 14.1082 10.0284 13.9459L10.9383 13.587L10.4306 12.7493C10.2394 12.4365 10.1686 12.1271 10.2147 11.8074C10.2646 11.4637 10.4016 11.1791 10.6341 10.935C10.8781 10.6799 11.1669 10.5149 11.5209 10.4324C11.638 10.4045 11.7556 10.3905 11.8733 10.3905C12.0951 10.3905 12.3184 10.4389 12.5491 10.5377L13.5718 10.9749L13.6937 9.86945C13.7519 9.33554 13.9822 8.89932 14.3947 8.53632C15.2379 7.79932 16.484 7.79932 17.3272 8.53632C17.7425 8.89932 17.9728 9.33554 18.0312 9.87041L18.1531 10.9759L19.1758 10.5387C19.5288 10.3883 19.8654 10.3539 20.204 10.4334C20.5556 10.5161 20.8454 10.6805 21.0891 10.936C21.3217 11.1798 21.4586 11.4647 21.5085 11.8084C21.5558 12.135 21.4902 12.4519 21.3087 12.7774L20.9155 13.4821L21.6122 13.8915C22.0086 14.1236 22.5232 14.5037 22.6576 14.6993C22.8956 15.0456 23.0125 15.4134 23.0125 15.8259C23.0125 16.3999 22.8097 16.8743 22.3903 17.2799Z" fill="white"/>
</svg>
