<svg width="32" height="41" viewBox="0 0 32 41" fill="none" xmlns="http://www.w3.org/2000/svg">
<path fill-rule="evenodd" clip-rule="evenodd" d="M15.9306 0C7.13273 0 0 7.14976 0 15.9686C0 27.5812 15.9306 40.0306 15.9306 40.0306C15.9306 40.0306 31.8611 27.5812 31.8611 15.9686C31.8611 7.14976 24.7284 0 15.9306 0Z" fill="#005BA9"/>
<path fill-rule="evenodd" clip-rule="evenodd" d="M25.625 15.2759C25.625 20.5916 21.3157 24.9009 16 24.9009C10.6843 24.9009 6.375 20.5916 6.375 15.2759C6.375 9.96014 10.6843 5.65088 16 5.65088C21.3157 5.65088 25.625 9.96014 25.625 15.2759ZM21.3279 13.4324C21.3279 12.7072 21.1506 12.0859 20.7942 11.5135C20.4397 10.9411 19.9366 10.5174 19.2888 10.2057C18.639 9.89606 17.8934 9.77588 17.0501 9.77588H12.5625V20.7759H15.2106V16.9055H17.0053C18.3477 16.9055 19.4049 16.6244 20.1749 15.9827C20.9429 15.339 21.3279 14.5079 21.3279 13.4324ZM18.6329 13.4446C18.6329 13.9131 18.4984 14.2594 18.2275 14.5161C17.9586 14.7748 17.5655 14.8685 17.0501 14.8685H15.2106V11.8129H17.0806C17.5614 11.8129 17.9403 11.9372 18.2173 12.2448C18.4944 12.5544 18.6329 12.9292 18.6329 13.4446Z" fill="white"/>
</svg>
