<svg width="32" height="41" viewBox="0 0 32 41" fill="none" xmlns="http://www.w3.org/2000/svg">
<path fill-rule="evenodd" clip-rule="evenodd" d="M15.9306 0C7.13273 0 0 7.14976 0 15.9686C0 27.5812 15.9306 40.0306 15.9306 40.0306C15.9306 40.0306 31.8611 27.5812 31.8611 15.9686C31.8611 7.14976 24.7284 0 15.9306 0Z" fill="#005BA9"/>
<path d="M16.5893 24.3853V14.5678C15.8936 14.8015 15.4414 15.2312 15.2327 15.8568C15.1127 16.2165 15.0272 16.5819 14.9762 16.953C14.9134 17.4098 14.5459 17.7853 14.0848 17.7853C13.6238 17.7853 13.2442 17.4103 13.2917 16.9517C13.4343 15.5768 13.9422 14.4521 14.8153 13.5778C15.8588 12.5328 17.285 12.0103 19.0938 12.0103C20.4851 12.0103 21.5286 11.6699 22.2243 10.9893C22.773 10.4526 23.1053 9.69561 23.2212 8.71846C23.2756 8.26062 23.6416 7.88525 24.1027 7.88525C24.5637 7.88525 24.9431 8.26018 24.8941 8.71863C24.8002 9.59801 24.5538 10.403 24.1549 11.1337C23.6331 12.0893 22.7809 12.7665 21.5982 13.1653V23.5504C21.5982 24.0115 21.2245 24.3853 20.7634 24.3853C20.3023 24.3853 19.9286 24.0115 19.9286 23.5504V19.4353H18.2589V24.3853H16.5893ZM19.0938 11.1853C18.6346 11.1853 18.2415 11.0237 17.9146 10.7006C17.5876 10.3774 17.4241 9.989 17.4241 9.53525C17.4241 9.0815 17.5876 8.69307 17.9146 8.36994C18.2415 8.04682 18.6346 7.88525 19.0938 7.88525C19.5529 7.88525 19.946 8.04682 20.2729 8.36994C20.5999 8.69307 20.7634 9.0815 20.7634 9.53525C20.7634 9.989 20.5999 10.3774 20.2729 10.7006C19.946 11.0237 19.5529 11.1853 19.0938 11.1853Z" fill="white"/>
<path fill-rule="evenodd" clip-rule="evenodd" d="M7.0625 23.354C7.0625 22.7845 7.52421 22.3228 8.09375 22.3228H17.375V24.3853H8.09375C7.52421 24.3853 7.0625 23.9235 7.0625 23.354Z" fill="white"/>
<path fill-rule="evenodd" clip-rule="evenodd" d="M14.1094 7.19775C14.1094 6.34344 13.4168 5.65088 12.5625 5.65088H9.8125C8.95818 5.65088 8.26562 6.34344 8.26562 7.19775V12.0103C8.26562 12.8646 8.95818 13.5571 9.8125 13.5571H12.5625C13.4168 13.5571 14.1094 12.8646 14.1094 12.0103V7.19775ZM12.3906 7.36963V11.8384H9.98438V7.36963H12.3906Z" fill="white"/>
<path fill-rule="evenodd" clip-rule="evenodd" d="M10.3281 23.354V12.6978H12.0469V23.354H10.3281Z" fill="white"/>
</svg>
