<svg width="32" height="41" viewBox="0 0 32 41" fill="none" xmlns="http://www.w3.org/2000/svg">
<path fill-rule="evenodd" clip-rule="evenodd" d="M15.9306 0C7.13273 0 0 7.14976 0 15.9686C0 27.5812 15.9306 40.0306 15.9306 40.0306C15.9306 40.0306 31.8611 27.5812 31.8611 15.9686C31.8611 7.14976 24.7284 0 15.9306 0Z" fill="#005BA9"/>
<path fill-rule="evenodd" clip-rule="evenodd" d="M24.9375 11.8384C24.9375 13.3572 23.7063 14.5884 22.1875 14.5884C20.6687 14.5884 19.4375 13.3572 19.4375 11.8384C19.4375 10.3196 20.6687 9.08838 22.1875 9.08838C23.7063 9.08838 24.9375 10.3196 24.9375 11.8384ZM20.8125 11.8384C20.8125 12.5978 21.4281 13.2134 22.1875 13.2134C22.9469 13.2134 23.5625 12.5978 23.5625 11.8384C23.5625 11.079 22.9469 10.4634 22.1875 10.4634C21.4281 10.4634 20.8125 11.079 20.8125 11.8384ZM10.5 18.0259C12.0188 18.0259 13.25 16.7947 13.25 15.2759C13.25 13.7571 12.0188 12.5259 10.5 12.5259C8.98122 12.5259 7.75 13.7571 7.75 15.2759C7.75 16.7947 8.98122 18.0259 10.5 18.0259ZM10.5 16.6509C9.74061 16.6509 9.125 16.0353 9.125 15.2759C9.125 14.5165 9.74061 13.9009 10.5 13.9009C11.2594 13.9009 11.875 14.5165 11.875 15.2759C11.875 16.0353 11.2594 16.6509 10.5 16.6509ZM10.5001 20.0884C9.11284 20.0884 7.94871 20.8645 6.96463 22.5046C6.76928 22.8302 6.34697 22.9358 6.02139 22.7404C5.6958 22.5451 5.59023 22.1227 5.78558 21.7972C7.0015 19.7706 8.58737 18.7134 10.5001 18.7134C12.4128 18.7134 13.9987 19.7706 15.2146 21.7972C15.41 22.1227 15.3044 22.5451 14.9788 22.7404C14.6532 22.9358 14.2309 22.8302 14.0356 22.5046C13.0515 20.8645 11.8874 20.0884 10.5001 20.0884ZM22.1876 16.6509C20.8003 16.6509 19.6362 17.427 18.6521 19.0671C18.4568 19.3927 18.0345 19.4983 17.7089 19.3029C17.3833 19.1076 17.2777 18.6852 17.4731 18.3597C18.689 16.3331 20.2749 15.2759 22.1876 15.2759C24.1003 15.2759 25.6862 16.3331 26.9021 18.3597C27.0975 18.6852 26.9919 19.1076 26.6663 19.3029C26.3407 19.4983 25.9184 19.3927 25.7231 19.0671C24.739 17.427 23.5749 16.6509 22.1876 16.6509Z" fill="white"/>
<path d="M13.9375 10.4634C15.0766 10.4634 16 9.53997 16 8.40088C16 7.26179 15.0766 6.33838 13.9375 6.33838C12.7984 6.33838 11.875 7.26179 11.875 8.40088C11.875 9.53997 12.7984 10.4634 13.9375 10.4634Z" fill="white"/>
</svg>
