<svg width="32" height="41" viewBox="0 0 32 41" fill="none" xmlns="http://www.w3.org/2000/svg">
<path fill-rule="evenodd" clip-rule="evenodd" d="M15.9306 0C7.13273 0 0 7.14976 0 15.9686C0 27.5812 15.9306 40.0306 15.9306 40.0306C15.9306 40.0306 31.8611 27.5812 31.8611 15.9686C31.8611 7.14976 24.7284 0 15.9306 0Z" fill="#005BA9"/>
<g clip-path="url(#clip0_7290_23894)">
<path d="M22.1187 17.3453C22.105 16.1834 21.0944 15.3928 20.0837 14.939C19.9737 14.8909 19.8431 14.8496 19.7263 14.8084C20.7231 13.8184 21.3281 12.4571 21.3281 11.0065C21.3281 8.05025 18.9219 5.65088 15.9725 5.65088C14.5425 5.65088 13.195 6.20775 12.1844 7.21838C11.1738 8.229 10.6169 9.5765 10.6169 11.0065C10.6169 12.4503 11.2219 13.8115 12.2188 14.8084C12.1019 14.8565 11.9713 14.8909 11.8613 14.939C10.8575 15.3859 9.8675 16.1559 9.81937 17.2834H9.8125V17.359V17.5103C9.8125 18.2046 9.8125 18.9196 10.3487 19.7171C10.7337 20.2878 11.2219 20.6384 11.6481 20.9478C12.3013 21.4221 12.59 21.6559 12.59 22.309V23.8284L12.6106 24.3715L13.1056 24.5709C14.0475 24.949 15.0444 25.1415 16.0413 25.1415C16.9831 25.1415 17.925 24.9696 18.8188 24.6328L19.3344 24.4403V22.3778C19.3344 21.7246 19.6231 21.4909 20.2763 21.0165C20.7025 20.7071 21.1906 20.3565 21.5756 19.7859C22.1119 18.9884 22.1119 18.2734 22.1119 17.5859V17.3521L22.1187 17.3453ZM12.1913 11.0065C12.1913 9.99588 12.5831 9.04713 13.2981 8.339C14.0131 7.624 14.9619 7.23213 15.9725 7.23213C18.0556 7.23213 19.7469 8.92338 19.7469 11.0065C19.7469 12.3815 18.9838 13.6465 17.7875 14.3065C17.21 14.2171 16.605 14.1621 15.9656 14.1621C15.3262 14.1621 14.7281 14.2171 14.1506 14.3065C12.9544 13.6465 12.1913 12.3815 12.1913 11.0065ZM12.5006 16.3828C13.3463 16.0046 14.57 15.7503 15.9725 15.7503C17.375 15.7503 18.5919 16.0046 19.4444 16.3828C20.3588 16.7953 20.5444 17.2009 20.5512 17.359C20.5512 17.524 20.3656 17.9296 19.4444 18.3421C18.5988 18.7203 17.375 18.9746 15.9725 18.9746C14.57 18.9746 13.3531 18.7203 12.5006 18.3421C11.5794 17.9296 11.3937 17.524 11.3937 17.359C11.3937 17.2009 11.5794 16.7884 12.5006 16.3759V16.3828ZM17.76 22.3778V23.3265C16.5844 23.6565 15.34 23.6428 14.1781 23.2784V22.3159C14.1781 21.319 13.7794 20.7071 13.305 20.2534C14.1162 20.4459 15.0169 20.5628 15.9725 20.5628C16.9281 20.5628 17.8906 20.439 18.7294 20.2328C18.2138 20.6934 17.7669 21.319 17.7669 22.3778H17.76Z" fill="white"/>
<path d="M14.7281 18.2321H17.4781C17.9112 18.2321 18.2688 17.8746 18.2688 17.4415C18.2688 17.0084 17.9112 16.6509 17.4781 16.6509H14.7281C14.2881 16.6509 13.9375 17.0084 13.9375 17.4415C13.9375 17.8746 14.2881 18.2321 14.7281 18.2321Z" fill="white"/>
</g>
<defs>
<clipPath id="clip0_7290_23894">
<rect width="12.3062" height="19.4906" fill="white" transform="translate(9.8125 5.65088)"/>
</clipPath>
</defs>
</svg>
