<svg width="32" height="41" viewBox="0 0 32 41" fill="none" xmlns="http://www.w3.org/2000/svg">
<path fill-rule="evenodd" clip-rule="evenodd" d="M15.9306 0C7.13273 0 0 7.14976 0 15.9686C0 27.5812 15.9306 40.0306 15.9306 40.0306C15.9306 40.0306 31.8611 27.5812 31.8611 15.9686C31.8611 7.14976 24.7284 0 15.9306 0Z" fill="#005BA9"/>
<path d="M15.1875 21.3696C15.9188 21.3696 16.5789 21.1767 17.168 20.7907C17.757 20.4048 18.2005 19.9004 18.4984 19.2774C18.2818 19.0879 18.0651 18.8881 17.8484 18.6782C17.6318 18.4683 17.4151 18.2483 17.1984 18.0181C17.1172 18.5326 16.8904 18.9491 16.518 19.2673C16.1456 19.5855 15.7021 19.7446 15.1875 19.7446C14.6188 19.7446 14.138 19.5483 13.7453 19.1556C13.3526 18.7629 13.1562 18.2821 13.1562 17.7134C13.1562 17.1446 13.356 16.6673 13.7555 16.2813C14.1549 15.8954 14.6391 15.6957 15.2078 15.6821C15.0453 15.4384 14.8896 15.1912 14.7406 14.9407C14.5917 14.6902 14.4495 14.4363 14.3141 14.179C13.5151 14.3821 12.8516 14.8087 12.3234 15.4587C11.7953 16.1087 11.5312 16.8603 11.5312 17.7134C11.5312 18.729 11.8867 19.5923 12.5977 20.3032C13.3086 21.0142 14.1719 21.3696 15.1875 21.3696ZM12.75 9.58838H13.7656C13.6979 9.84567 13.6471 10.1097 13.6133 10.3806C13.5794 10.6514 13.5625 10.929 13.5625 11.2134H13.4609L11.9781 12.8384H8.6875V22.5884H21.6875V19.2368C21.9583 18.9931 22.2292 18.7392 22.5 18.4751C22.7708 18.211 23.0417 17.9436 23.3125 17.6728V22.5884C23.3125 23.0353 23.1534 23.4178 22.8352 23.736C22.5169 24.0543 22.1344 24.2134 21.6875 24.2134H8.6875C8.24062 24.2134 7.85807 24.0543 7.53984 23.736C7.22161 23.4178 7.0625 23.0353 7.0625 22.5884V12.8384C7.0625 12.3915 7.22161 12.009 7.53984 11.6907C7.85807 11.3725 8.24062 11.2134 8.6875 11.2134H11.2469L12.75 9.58838ZM20.0625 18.5259C21.701 17.1311 22.9232 15.8379 23.7289 14.6462C24.5346 13.4545 24.9375 12.3509 24.9375 11.3353C24.9375 9.80505 24.4466 8.58968 23.4648 7.68916C22.4831 6.78864 21.349 6.33838 20.0625 6.33838C18.776 6.33838 17.6419 6.78864 16.6602 7.68916C15.6784 8.58968 15.1875 9.80505 15.1875 11.3353C15.1875 12.3509 15.5904 13.4545 16.3961 14.6462C17.2018 15.8379 18.424 17.1311 20.0625 18.5259ZM20.0625 16.3524C18.6542 15.0254 17.7604 13.9556 17.3812 13.1431C17.0021 12.3306 16.8125 11.728 16.8125 11.3353C16.8125 10.2384 17.1544 9.40218 17.8383 8.82666C18.5221 8.25114 19.2635 7.96338 20.0625 7.96338C20.8615 7.96338 21.6029 8.25114 22.2867 8.82666C22.9706 9.40218 23.3125 10.2384 23.3125 11.3353C23.3125 11.728 23.1229 12.3306 22.7438 13.1431C22.3646 13.9556 21.4708 15.0254 20.0625 16.3524ZM19.0689 13.2653C18.9092 13.3861 18.6884 13.2315 18.7473 13.0402L19.1281 11.8024L18.086 10.9715C17.9334 10.8499 18.0194 10.604 18.2145 10.604H19.4734L19.8662 9.38512C19.9276 9.19446 20.1974 9.19446 20.2588 9.38512L20.6516 10.604H21.9105C22.1056 10.604 22.1916 10.8499 22.039 10.9715L20.9969 11.8024L21.3777 13.0402C21.4366 13.2315 21.2158 13.3861 21.0561 13.2653L20.0625 12.5134L19.0689 13.2653Z" fill="white"/>
</svg>
